<mxfile host="65bd71144e">
    <diagram id="dJTnZtg11wNzAiVSVhEr" name="PÃ¡gina-1">
        <mxGraphModel dx="1102" dy="527" grid="1" gridSize="10" guides="1" tooltips="1" connect="1" arrows="1" fold="1" page="1" pageScale="1" pageWidth="1169" pageHeight="1654" math="0" shadow="0">
            <root>
                <mxCell id="0"/>
                <mxCell id="1" parent="0"/>
                <mxCell id="2" value="Tabla_Partidos" style="swimlane;whiteSpace=wrap;html=1;" parent="1" vertex="1">
                    <mxGeometry x="70" y="20" width="200" height="250" as="geometry"/>
                </mxCell>
                <mxCell id="57" value="" style="endArrow=none;html=1;exitX=0;exitY=0.25;exitDx=0;exitDy=0;" parent="2" edge="1">
                    <mxGeometry width="50" height="50" relative="1" as="geometry">
                        <mxPoint y="40" as="sourcePoint"/>
                        <mxPoint y="45" as="targetPoint"/>
                    </mxGeometry>
                </mxCell>
                <mxCell id="58" value="Id_equipo_local" style="text;html=1;align=center;verticalAlign=middle;resizable=0;points=[];autosize=1;strokeColor=none;fillColor=none;" parent="2" vertex="1">
                    <mxGeometry x="5" y="65" width="110" height="30" as="geometry"/>
                </mxCell>
                <mxCell id="59" value="Partidos_id" style="text;html=1;align=center;verticalAlign=middle;resizable=0;points=[];autosize=1;strokeColor=none;fillColor=none;" parent="2" vertex="1">
                    <mxGeometry x="5" y="25" width="80" height="30" as="geometry"/>
                </mxCell>
                <mxCell id="60" value="" style="endArrow=none;html=1;startArrow=none;" parent="2" edge="1">
                    <mxGeometry width="50" height="50" relative="1" as="geometry">
                        <mxPoint y="55" as="sourcePoint"/>
                        <mxPoint x="200" y="55" as="targetPoint"/>
                    </mxGeometry>
                </mxCell>
                <mxCell id="61" value="" style="endArrow=none;html=1;startArrow=none;" parent="2" edge="1">
                    <mxGeometry width="50" height="50" relative="1" as="geometry">
                        <mxPoint y="95" as="sourcePoint"/>
                        <mxPoint x="200" y="95" as="targetPoint"/>
                    </mxGeometry>
                </mxCell>
                <mxCell id="62" value="" style="endArrow=none;html=1;startArrow=none;" parent="2" edge="1">
                    <mxGeometry width="50" height="50" relative="1" as="geometry">
                        <mxPoint y="135" as="sourcePoint"/>
                        <mxPoint x="200" y="135" as="targetPoint"/>
                    </mxGeometry>
                </mxCell>
                <mxCell id="63" value="Id_equipo_visitante" style="text;html=1;align=center;verticalAlign=middle;resizable=0;points=[];autosize=1;strokeColor=none;fillColor=none;" parent="2" vertex="1">
                    <mxGeometry y="105" width="130" height="30" as="geometry"/>
                </mxCell>
                <mxCell id="64" value="Resultado" style="text;html=1;align=center;verticalAlign=middle;resizable=0;points=[];autosize=1;strokeColor=none;fillColor=none;" parent="2" vertex="1">
                    <mxGeometry x="10" y="145" width="80" height="30" as="geometry"/>
                </mxCell>
                <mxCell id="65" value="" style="endArrow=none;html=1;startArrow=none;" parent="2" edge="1">
                    <mxGeometry width="50" height="50" relative="1" as="geometry">
                        <mxPoint y="174" as="sourcePoint"/>
                        <mxPoint x="200" y="174" as="targetPoint"/>
                    </mxGeometry>
                </mxCell>
                <mxCell id="66" value="Fecha" style="text;html=1;align=center;verticalAlign=middle;resizable=0;points=[];autosize=1;strokeColor=none;fillColor=none;" parent="2" vertex="1">
                    <mxGeometry x="10" y="180" width="60" height="30" as="geometry"/>
                </mxCell>
                <mxCell id="68" value="" style="endArrow=none;html=1;startArrow=none;" parent="2" edge="1">
                    <mxGeometry width="50" height="50" relative="1" as="geometry">
                        <mxPoint y="210" as="sourcePoint"/>
                        <mxPoint x="200" y="210" as="targetPoint"/>
                        <Array as="points">
                            <mxPoint x="100" y="210"/>
                        </Array>
                    </mxGeometry>
                </mxCell>
                <mxCell id="69" value="Hora" style="text;html=1;align=center;verticalAlign=middle;resizable=0;points=[];autosize=1;strokeColor=none;fillColor=none;" parent="2" vertex="1">
                    <mxGeometry x="15" y="220" width="50" height="30" as="geometry"/>
                </mxCell>
                <mxCell id="3" value="Tabla_Grupos" style="swimlane;whiteSpace=wrap;html=1;" parent="1" vertex="1">
                    <mxGeometry x="100" y="420" width="200" height="180" as="geometry"/>
                </mxCell>
                <mxCell id="21" value="" style="endArrow=none;html=1;exitX=0;exitY=0.25;exitDx=0;exitDy=0;" parent="3" source="3" edge="1">
                    <mxGeometry width="50" height="50" relative="1" as="geometry">
                        <mxPoint y="80" as="sourcePoint"/>
                        <mxPoint y="50" as="targetPoint"/>
                    </mxGeometry>
                </mxCell>
                <mxCell id="24" value="Nombre_Grupo" style="text;html=1;align=center;verticalAlign=middle;resizable=0;points=[];autosize=1;strokeColor=none;fillColor=none;" parent="3" vertex="1">
                    <mxGeometry x="5" y="70" width="110" height="30" as="geometry"/>
                </mxCell>
                <mxCell id="22" value="Grupo_id" style="text;html=1;align=center;verticalAlign=middle;resizable=0;points=[];autosize=1;strokeColor=none;fillColor=none;" parent="3" vertex="1">
                    <mxGeometry x="10" y="30" width="70" height="30" as="geometry"/>
                </mxCell>
                <mxCell id="6" value="" style="endArrow=none;html=1;startArrow=none;" parent="3" edge="1">
                    <mxGeometry width="50" height="50" relative="1" as="geometry">
                        <mxPoint y="60" as="sourcePoint"/>
                        <mxPoint x="200" y="60" as="targetPoint"/>
                    </mxGeometry>
                </mxCell>
                <mxCell id="25" value="" style="endArrow=none;html=1;startArrow=none;" parent="3" edge="1">
                    <mxGeometry width="50" height="50" relative="1" as="geometry">
                        <mxPoint y="100" as="sourcePoint"/>
                        <mxPoint x="200" y="100" as="targetPoint"/>
                    </mxGeometry>
                </mxCell>
                <mxCell id="26" value="" style="endArrow=none;html=1;startArrow=none;" parent="3" edge="1">
                    <mxGeometry width="50" height="50" relative="1" as="geometry">
                        <mxPoint y="140" as="sourcePoint"/>
                        <mxPoint x="200" y="140" as="targetPoint"/>
                    </mxGeometry>
                </mxCell>
                <mxCell id="27" value="Nombre_Equipo1" style="text;html=1;align=center;verticalAlign=middle;resizable=0;points=[];autosize=1;strokeColor=none;fillColor=none;" parent="3" vertex="1">
                    <mxGeometry x="5" y="110" width="120" height="30" as="geometry"/>
                </mxCell>
                <mxCell id="28" value="Nombre_Equipo2" style="text;html=1;align=center;verticalAlign=middle;resizable=0;points=[];autosize=1;strokeColor=none;fillColor=none;" parent="3" vertex="1">
                    <mxGeometry x="10" y="150" width="120" height="30" as="geometry"/>
                </mxCell>
                <mxCell id="4" value="Tabla_Horarios" style="swimlane;whiteSpace=wrap;html=1;" parent="1" vertex="1">
                    <mxGeometry x="831" y="420" width="200" height="230" as="geometry"/>
                </mxCell>
                <mxCell id="29" value="" style="endArrow=none;html=1;exitX=0;exitY=0.25;exitDx=0;exitDy=0;" parent="4" edge="1">
                    <mxGeometry width="50" height="50" relative="1" as="geometry">
                        <mxPoint y="50" as="sourcePoint"/>
                        <mxPoint y="50" as="targetPoint"/>
                    </mxGeometry>
                </mxCell>
                <mxCell id="30" value="Id_Equipo" style="text;html=1;align=center;verticalAlign=middle;resizable=0;points=[];autosize=1;strokeColor=none;fillColor=none;" parent="4" vertex="1">
                    <mxGeometry x="15" y="70" width="80" height="30" as="geometry"/>
                </mxCell>
                <mxCell id="31" value="id_Horarios" style="text;html=1;align=center;verticalAlign=middle;resizable=0;points=[];autosize=1;strokeColor=none;fillColor=none;" parent="4" vertex="1">
                    <mxGeometry x="15" y="30" width="80" height="30" as="geometry"/>
                </mxCell>
                <mxCell id="32" value="" style="endArrow=none;html=1;startArrow=none;" parent="4" edge="1">
                    <mxGeometry width="50" height="50" relative="1" as="geometry">
                        <mxPoint y="60" as="sourcePoint"/>
                        <mxPoint x="200" y="60" as="targetPoint"/>
                    </mxGeometry>
                </mxCell>
                <mxCell id="33" value="" style="endArrow=none;html=1;startArrow=none;" parent="4" edge="1">
                    <mxGeometry width="50" height="50" relative="1" as="geometry">
                        <mxPoint y="100" as="sourcePoint"/>
                        <mxPoint x="200" y="100" as="targetPoint"/>
                    </mxGeometry>
                </mxCell>
                <mxCell id="34" value="" style="endArrow=none;html=1;exitX=0;exitY=0.25;exitDx=0;exitDy=0;" parent="4" edge="1">
                    <mxGeometry width="50" height="50" relative="1" as="geometry">
                        <mxPoint y="130" as="sourcePoint"/>
                        <mxPoint y="130" as="targetPoint"/>
                    </mxGeometry>
                </mxCell>
                <mxCell id="35" value="Hora_Inicio" style="text;html=1;align=center;verticalAlign=middle;resizable=0;points=[];autosize=1;strokeColor=none;fillColor=none;" parent="4" vertex="1">
                    <mxGeometry x="15" y="150" width="80" height="30" as="geometry"/>
                </mxCell>
                <mxCell id="36" value="Dia" style="text;html=1;align=center;verticalAlign=middle;resizable=0;points=[];autosize=1;strokeColor=none;fillColor=none;" parent="4" vertex="1">
                    <mxGeometry x="15" y="110" width="40" height="30" as="geometry"/>
                </mxCell>
                <mxCell id="37" value="" style="endArrow=none;html=1;startArrow=none;" parent="4" edge="1">
                    <mxGeometry width="50" height="50" relative="1" as="geometry">
                        <mxPoint y="140" as="sourcePoint"/>
                        <mxPoint x="200" y="140" as="targetPoint"/>
                    </mxGeometry>
                </mxCell>
                <mxCell id="38" value="" style="endArrow=none;html=1;startArrow=none;" parent="4" edge="1">
                    <mxGeometry width="50" height="50" relative="1" as="geometry">
                        <mxPoint y="180" as="sourcePoint"/>
                        <mxPoint x="200" y="180" as="targetPoint"/>
                    </mxGeometry>
                </mxCell>
                <mxCell id="39" value="Hora_Fin" style="text;html=1;align=center;verticalAlign=middle;resizable=0;points=[];autosize=1;strokeColor=none;fillColor=none;" parent="4" vertex="1">
                    <mxGeometry x="15" y="190" width="70" height="30" as="geometry"/>
                </mxCell>
                <mxCell id="5" value="Tabla_Equipos" style="swimlane;whiteSpace=wrap;html=1;" parent="1" vertex="1">
                    <mxGeometry x="780" y="30" width="200" height="220" as="geometry"/>
                </mxCell>
                <mxCell id="40" value="" style="endArrow=none;html=1;exitX=0;exitY=0.25;exitDx=0;exitDy=0;" parent="5" edge="1">
                    <mxGeometry width="50" height="50" relative="1" as="geometry">
                        <mxPoint y="40" as="sourcePoint"/>
                        <mxPoint y="40" as="targetPoint"/>
                    </mxGeometry>
                </mxCell>
                <mxCell id="41" value="Nombre_Equipo" style="text;html=1;align=center;verticalAlign=middle;resizable=0;points=[];autosize=1;strokeColor=none;fillColor=none;" parent="5" vertex="1">
                    <mxGeometry x="5" y="60" width="110" height="30" as="geometry"/>
                </mxCell>
                <mxCell id="42" value="id" style="text;html=1;align=center;verticalAlign=middle;resizable=0;points=[];autosize=1;strokeColor=none;fillColor=none;" parent="5" vertex="1">
                    <mxGeometry x="10" y="20" width="30" height="30" as="geometry"/>
                </mxCell>
                <mxCell id="43" value="" style="endArrow=none;html=1;startArrow=none;" parent="5" edge="1">
                    <mxGeometry width="50" height="50" relative="1" as="geometry">
                        <mxPoint y="50" as="sourcePoint"/>
                        <mxPoint x="200" y="50" as="targetPoint"/>
                    </mxGeometry>
                </mxCell>
                <mxCell id="44" value="" style="endArrow=none;html=1;startArrow=none;" parent="5" edge="1">
                    <mxGeometry width="50" height="50" relative="1" as="geometry">
                        <mxPoint y="90" as="sourcePoint"/>
                        <mxPoint x="200" y="90" as="targetPoint"/>
                    </mxGeometry>
                </mxCell>
                <mxCell id="45" value="" style="endArrow=none;html=1;startArrow=none;" parent="5" edge="1">
                    <mxGeometry width="50" height="50" relative="1" as="geometry">
                        <mxPoint y="130" as="sourcePoint"/>
                        <mxPoint x="200" y="130" as="targetPoint"/>
                    </mxGeometry>
                </mxCell>
                <mxCell id="46" value="Representante" style="text;html=1;align=center;verticalAlign=middle;resizable=0;points=[];autosize=1;strokeColor=none;fillColor=none;" parent="5" vertex="1">
                    <mxGeometry x="15" y="100" width="100" height="30" as="geometry"/>
                </mxCell>
                <mxCell id="47" value="Subrepresentante" style="text;html=1;align=center;verticalAlign=middle;resizable=0;points=[];autosize=1;strokeColor=none;fillColor=none;" parent="5" vertex="1">
                    <mxGeometry x="10" y="140" width="120" height="30" as="geometry"/>
                </mxCell>
                <mxCell id="48" value="Grupo_id" style="text;html=1;align=center;verticalAlign=middle;resizable=0;points=[];autosize=1;strokeColor=none;fillColor=none;" parent="5" vertex="1">
                    <mxGeometry x="20" y="180" width="70" height="30" as="geometry"/>
                </mxCell>
                <mxCell id="49" value="" style="endArrow=none;html=1;startArrow=none;" parent="5" edge="1">
                    <mxGeometry width="50" height="50" relative="1" as="geometry">
                        <mxPoint y="170" as="sourcePoint"/>
                        <mxPoint x="200" y="170" as="targetPoint"/>
                    </mxGeometry>
                </mxCell>
                <mxCell id="102" value="" style="shape=process;whiteSpace=wrap;html=1;backgroundOutline=1;fontSize=36;" vertex="1" parent="1">
                    <mxGeometry x="80" y="760" width="1280" height="740" as="geometry"/>
                </mxCell>
                <mxCell id="119" value="" style="rounded=1;whiteSpace=wrap;html=1;" vertex="1" parent="1">
                    <mxGeometry x="250" y="1020" width="220" height="60" as="geometry"/>
                </mxCell>
                <mxCell id="120" value="" style="rounded=1;whiteSpace=wrap;html=1;" vertex="1" parent="1">
                    <mxGeometry x="478.75" y="1020" width="211.25" height="60" as="geometry"/>
                </mxCell>
                <mxCell id="121" value="" style="rounded=1;whiteSpace=wrap;html=1;fontSize=36;" vertex="1" parent="1">
                    <mxGeometry x="800" y="1000" width="410" height="100" as="geometry"/>
                </mxCell>
                <mxCell id="122" style="edgeStyle=none;html=1;fontSize=11;" edge="1" parent="1">
                    <mxGeometry relative="1" as="geometry">
                        <mxPoint x="1230" y="1100" as="targetPoint"/>
                        <mxPoint x="1230" y="1100" as="sourcePoint"/>
                        <Array as="points">
                            <mxPoint x="1230" y="1100"/>
                        </Array>
                    </mxGeometry>
                </mxCell>
                <mxCell id="123" value="" style="shape=link;html=1;fontSize=36;width=0;entryX=1;entryY=0.5;entryDx=0;entryDy=0;exitX=0;exitY=0.5;exitDx=0;exitDy=0;" edge="1" parent="1" source="121" target="121">
                    <mxGeometry width="100" relative="1" as="geometry">
                        <mxPoint x="810" y="1089.5" as="sourcePoint"/>
                        <mxPoint x="930" y="1090" as="targetPoint"/>
                    </mxGeometry>
                </mxCell>
                <mxCell id="124" value="Equipos" style="text;html=1;strokeColor=none;fillColor=none;align=center;verticalAlign=middle;whiteSpace=wrap;rounded=0;fontSize=11;" vertex="1" parent="1">
                    <mxGeometry x="870" y="1010" width="60" height="30" as="geometry"/>
                </mxCell>
                <mxCell id="125" value="" style="shape=link;html=1;fontSize=36;width=-2;exitX=0.5;exitY=0;exitDx=0;exitDy=0;entryX=0.5;entryY=1;entryDx=0;entryDy=0;" edge="1" parent="1" source="121" target="121">
                    <mxGeometry width="100" relative="1" as="geometry">
                        <mxPoint x="930" y="1230" as="sourcePoint"/>
                        <mxPoint x="1120" y="1230" as="targetPoint"/>
                    </mxGeometry>
                </mxCell>
                <mxCell id="126" value="Horarios" style="text;html=1;strokeColor=none;fillColor=none;align=center;verticalAlign=middle;whiteSpace=wrap;rounded=0;fontSize=11;" vertex="1" parent="1">
                    <mxGeometry x="1080" y="1010" width="60" height="30" as="geometry"/>
                </mxCell>
                <mxCell id="127" value="Barcelona" style="text;html=1;strokeColor=none;fillColor=none;align=center;verticalAlign=middle;whiteSpace=wrap;rounded=0;fontSize=11;" vertex="1" parent="1">
                    <mxGeometry x="870" y="1057.5" width="60" height="30" as="geometry"/>
                </mxCell>
                <mxCell id="128" value="martes 12-17, miercoles 16-18" style="text;html=1;strokeColor=none;fillColor=none;align=center;verticalAlign=middle;whiteSpace=wrap;rounded=0;fontSize=11;" vertex="1" parent="1">
                    <mxGeometry x="1030" y="1055" width="160" height="35" as="geometry"/>
                </mxCell>
                <mxCell id="129" value="" style="triangle;whiteSpace=wrap;html=1;fontSize=11;rotation=90;" vertex="1" parent="1">
                    <mxGeometry x="626.25" y="1017.5" width="42.5" height="65" as="geometry"/>
                </mxCell>
                <mxCell id="130" value="&lt;font style=&quot;font-size: 14px;&quot;&gt;Seleccionar Grupo&lt;/font&gt;" style="text;html=1;strokeColor=none;fillColor=none;align=center;verticalAlign=middle;whiteSpace=wrap;rounded=0;fontSize=11;" vertex="1" parent="1">
                    <mxGeometry x="500" y="1035" width="100" height="30" as="geometry"/>
                </mxCell>
                <mxCell id="131" value="&lt;font style=&quot;font-size: 14px;&quot;&gt;Seleccionar Equipo&lt;/font&gt;" style="text;html=1;strokeColor=none;fillColor=none;align=center;verticalAlign=middle;whiteSpace=wrap;rounded=0;fontSize=11;" vertex="1" parent="1">
                    <mxGeometry x="270" y="1030" width="110" height="38.75" as="geometry"/>
                </mxCell>
                <mxCell id="132" value="" style="triangle;whiteSpace=wrap;html=1;fontSize=11;rotation=90;" vertex="1" parent="1">
                    <mxGeometry x="397.5" y="1017.5" width="42.5" height="65" as="geometry"/>
                </mxCell>
                <mxCell id="133" value="&lt;span style=&quot;font-size: 36px;&quot;&gt;Fomulario para agregar los equipos a los grupos&lt;/span&gt;" style="text;html=1;strokeColor=none;fillColor=none;align=center;verticalAlign=middle;whiteSpace=wrap;rounded=0;fontSize=14;" vertex="1" parent="1">
                    <mxGeometry x="250" y="860" width="510" height="100" as="geometry"/>
                </mxCell>
                <mxCell id="134" value="&lt;font style=&quot;font-size: 36px;&quot;&gt;Listado de equipos y sus horarios&lt;/font&gt;" style="text;html=1;strokeColor=none;fillColor=none;align=center;verticalAlign=middle;whiteSpace=wrap;rounded=0;fontSize=14;" vertex="1" parent="1">
                    <mxGeometry x="825" y="870" width="360" height="80" as="geometry"/>
                </mxCell>
                <mxCell id="135" value="Boton Guardar" style="html=1;whiteSpace=wrap;container=1;recursiveResize=0;collapsible=0;fontSize=36;" vertex="1" parent="1">
                    <mxGeometry x="320" y="1130" width="330" height="70" as="geometry"/>
                </mxCell>
                <mxCell id="136" value="" style="triangle;html=1;whiteSpace=wrap;fontSize=36;" vertex="1" parent="135">
                    <mxGeometry x="20" y="20" width="20" height="30" as="geometry"/>
                </mxCell>
                <mxCell id="137" value="Assets" style="childLayout=tableLayout;recursiveResize=0;strokeColor=#98bf21;fillColor=#A7C942;shadow=1;fontSize=36;" vertex="1" parent="1">
                    <mxGeometry x="478.75" y="1270" width="540" height="180" as="geometry"/>
                </mxCell>
                <mxCell id="138" style="shape=tableRow;horizontal=0;startSize=0;swimlaneHead=0;swimlaneBody=0;top=0;left=0;bottom=0;right=0;dropTarget=0;collapsible=0;recursiveResize=0;expand=0;fontStyle=0;strokeColor=inherit;fillColor=#ffffff;fontSize=36;" vertex="1" parent="137">
                    <mxGeometry width="540" height="37" as="geometry"/>
                </mxCell>
                <mxCell id="139" value="Grupos" style="connectable=0;recursiveResize=0;strokeColor=inherit;fillColor=#A7C942;align=center;fontStyle=1;fontColor=#FFFFFF;html=1;fontSize=36;" vertex="1" parent="138">
                    <mxGeometry width="179" height="37" as="geometry">
                        <mxRectangle width="179" height="37" as="alternateBounds"/>
                    </mxGeometry>
                </mxCell>
                <mxCell id="140" value="Title 2" style="connectable=0;recursiveResize=0;strokeColor=inherit;fillColor=#A7C942;align=center;fontStyle=1;fontColor=#FFFFFF;html=1;fontSize=36;" vertex="1" parent="138">
                    <mxGeometry x="179" width="182" height="37" as="geometry">
                        <mxRectangle width="182" height="37" as="alternateBounds"/>
                    </mxGeometry>
                </mxCell>
                <mxCell id="141" value="Title 3" style="connectable=0;recursiveResize=0;strokeColor=inherit;fillColor=#A7C942;align=center;fontStyle=1;fontColor=#FFFFFF;html=1;fontSize=36;" vertex="1" parent="138">
                    <mxGeometry x="361" width="179" height="37" as="geometry">
                        <mxRectangle width="179" height="37" as="alternateBounds"/>
                    </mxGeometry>
                </mxCell>
                <mxCell id="142" value="" style="shape=tableRow;horizontal=0;startSize=0;swimlaneHead=0;swimlaneBody=0;top=0;left=0;bottom=0;right=0;dropTarget=0;collapsible=0;recursiveResize=0;expand=0;fontStyle=0;strokeColor=inherit;fillColor=#ffffff;fontSize=36;" vertex="1" parent="137">
                    <mxGeometry y="37" width="540" height="36" as="geometry"/>
                </mxCell>
                <mxCell id="143" value="Grupo A" style="connectable=0;recursiveResize=0;align=center;whiteSpace=wrap;html=1;fontSize=36;" vertex="1" parent="142">
                    <mxGeometry width="179" height="36" as="geometry">
                        <mxRectangle width="179" height="36" as="alternateBounds"/>
                    </mxGeometry>
                </mxCell>
                <mxCell id="144" value="Barcelona" style="connectable=0;recursiveResize=0;align=center;whiteSpace=wrap;html=1;fontSize=36;" vertex="1" parent="142">
                    <mxGeometry x="179" width="182" height="36" as="geometry">
                        <mxRectangle width="182" height="36" as="alternateBounds"/>
                    </mxGeometry>
                </mxCell>
                <mxCell id="145" value="Value 3" style="connectable=0;recursiveResize=0;align=center;whiteSpace=wrap;html=1;fontSize=36;" vertex="1" parent="142">
                    <mxGeometry x="361" width="179" height="36" as="geometry">
                        <mxRectangle width="179" height="36" as="alternateBounds"/>
                    </mxGeometry>
                </mxCell>
                <mxCell id="146" value="" style="shape=tableRow;horizontal=0;startSize=0;swimlaneHead=0;swimlaneBody=0;top=0;left=0;bottom=0;right=0;dropTarget=0;collapsible=0;recursiveResize=0;expand=0;fontStyle=1;strokeColor=inherit;fillColor=#EAF2D3;fontSize=36;" vertex="1" parent="137">
                    <mxGeometry y="73" width="540" height="35" as="geometry"/>
                </mxCell>
                <mxCell id="147" value="Grupos B" style="connectable=0;recursiveResize=0;whiteSpace=wrap;html=1;fontSize=36;" vertex="1" parent="146">
                    <mxGeometry width="179" height="35" as="geometry">
                        <mxRectangle width="179" height="35" as="alternateBounds"/>
                    </mxGeometry>
                </mxCell>
                <mxCell id="148" value="Value 5" style="connectable=0;recursiveResize=0;whiteSpace=wrap;html=1;fontSize=36;" vertex="1" parent="146">
                    <mxGeometry x="179" width="182" height="35" as="geometry">
                        <mxRectangle width="182" height="35" as="alternateBounds"/>
                    </mxGeometry>
                </mxCell>
                <mxCell id="149" value="Value 6" style="connectable=0;recursiveResize=0;whiteSpace=wrap;html=1;fontSize=36;" vertex="1" parent="146">
                    <mxGeometry x="361" width="179" height="35" as="geometry">
                        <mxRectangle width="179" height="35" as="alternateBounds"/>
                    </mxGeometry>
                </mxCell>
                <mxCell id="150" value="" style="shape=tableRow;horizontal=0;startSize=0;swimlaneHead=0;swimlaneBody=0;top=0;left=0;bottom=0;right=0;dropTarget=0;collapsible=0;recursiveResize=0;expand=0;fontStyle=0;strokeColor=inherit;fillColor=#ffffff;fontSize=36;" vertex="1" parent="137">
                    <mxGeometry y="108" width="540" height="37" as="geometry"/>
                </mxCell>
                <mxCell id="151" value="Value 7" style="connectable=0;recursiveResize=0;fontStyle=0;align=center;whiteSpace=wrap;html=1;fontSize=36;" vertex="1" parent="150">
                    <mxGeometry width="179" height="37" as="geometry">
                        <mxRectangle width="179" height="37" as="alternateBounds"/>
                    </mxGeometry>
                </mxCell>
                <mxCell id="152" value="Value 8" style="connectable=0;recursiveResize=0;fontStyle=0;align=center;whiteSpace=wrap;html=1;fontSize=36;" vertex="1" parent="150">
                    <mxGeometry x="179" width="182" height="37" as="geometry">
                        <mxRectangle width="182" height="37" as="alternateBounds"/>
                    </mxGeometry>
                </mxCell>
                <mxCell id="153" value="Value 9" style="connectable=0;recursiveResize=0;fontStyle=0;align=center;whiteSpace=wrap;html=1;fontSize=36;" vertex="1" parent="150">
                    <mxGeometry x="361" width="179" height="37" as="geometry">
                        <mxRectangle width="179" height="37" as="alternateBounds"/>
                    </mxGeometry>
                </mxCell>
                <mxCell id="154" value="" style="shape=tableRow;horizontal=0;startSize=0;swimlaneHead=0;swimlaneBody=0;top=0;left=0;bottom=0;right=0;dropTarget=0;collapsible=0;recursiveResize=0;expand=0;fontStyle=1;strokeColor=inherit;fillColor=#EAF2D3;fontSize=36;" vertex="1" parent="137">
                    <mxGeometry y="145" width="540" height="35" as="geometry"/>
                </mxCell>
                <mxCell id="155" value="Value 10" style="connectable=0;recursiveResize=0;whiteSpace=wrap;html=1;fontSize=36;" vertex="1" parent="154">
                    <mxGeometry width="179" height="35" as="geometry">
                        <mxRectangle width="179" height="35" as="alternateBounds"/>
                    </mxGeometry>
                </mxCell>
                <mxCell id="156" value="Value 11" style="connectable=0;recursiveResize=0;whiteSpace=wrap;html=1;fontSize=36;" vertex="1" parent="154">
                    <mxGeometry x="179" width="182" height="35" as="geometry">
                        <mxRectangle width="182" height="35" as="alternateBounds"/>
                    </mxGeometry>
                </mxCell>
                <mxCell id="157" value="Value 12" style="connectable=0;recursiveResize=0;whiteSpace=wrap;html=1;fontSize=36;" vertex="1" parent="154">
                    <mxGeometry x="361" width="179" height="35" as="geometry">
                        <mxRectangle width="179" height="35" as="alternateBounds"/>
                    </mxGeometry>
                </mxCell>
            </root>
        </mxGraphModel>
    </diagram>
</mxfile>